<?xml version="1.0" standalone="no"?>
<!DOCTYPE svg PUBLIC "-//W3C//DTD SVG 20010904//EN"
 "http://www.w3.org/TR/2001/REC-SVG-20010904/DTD/svg10.dtd">
<svg version="1.0" xmlns="http://www.w3.org/2000/svg"
 width="1280.000000pt" height="1280.000000pt" viewBox="0 0 1280.000000 1280.000000"
 preserveAspectRatio="xMidYMid meet">
<g transform="translate(0.000000,1280.000000) scale(0.100000,-0.100000)"
fill="#000000" stroke="none">
<path d="M2350 11059 c-366 -43 -674 -246 -824 -546 -80 -161 -117 -371 -96
-559 53 -492 338 -885 930 -1279 520 -346 1099 -579 1715 -690 125 -22 157
-25 191 -16 58 15 105 50 132 96 22 38 23 47 18 175 -22 540 -198 1214 -448
1713 -328 656 -814 1049 -1368 1107 -108 11 -145 11 -250 -1z m347 -233 c332
-71 636 -288 874 -625 329 -466 585 -1249 625 -1909 l7 -110 -74 14 c-41 8
-78 14 -84 14 -28 1 -35 22 -45 140 -40 481 -159 925 -359 1345 -231 482 -536
787 -917 915 -376 127 -767 36 -989 -230 -44 -53 -42 -31 8 63 103 195 352
354 625 397 76 12 239 5 329 -14z"/>
<path d="M7640 9234 c-645 -57 -1202 -209 -1719 -468 -760 -382 -1391 -990
-1762 -1700 -252 -484 -381 -981 -396 -1528 -23 -840 249 -1630 801 -2323 106
-133 454 -480 589 -587 259 -206 469 -341 762 -489 976 -493 2106 -616 3180
-344 1077 273 1984 914 2537 1792 102 163 262 489 326 663 89 243 150 493 189
770 22 158 25 673 5 820 -84 608 -261 1085 -585 1570 -663 993 -1772 1642
-3082 1806 -124 15 -728 28 -845 18z m-889 -2454 c81 -11 252 -41 380 -65 436
-84 482 -89 789 -89 309 -1 377 7 815 89 412 78 497 88 720 89 159 1 217 -3
283 -17 278 -61 500 -183 703 -386 281 -282 422 -620 423 -1016 0 -223 -38
-393 -134 -590 -206 -422 -651 -774 -1135 -895 -166 -42 -282 -54 -473 -47
-254 9 -370 43 -607 177 -248 140 -379 176 -619 167 -223 -7 -297 -29 -571
-166 -326 -164 -376 -176 -695 -175 -183 0 -230 3 -317 22 -156 34 -274 76
-428 153 -495 247 -832 674 -911 1157 -21 129 -14 369 16 497 42 186 117 364
217 514 71 106 260 297 365 369 163 112 374 197 563 227 124 20 423 13 616
-15z"/>
<path d="M6293 5876 c-329 -63 -596 -268 -738 -568 -51 -107 -77 -199 -69
-237 30 -125 163 -184 263 -118 41 28 61 61 95 157 41 117 153 256 263 327 31
19 92 49 137 66 68 25 100 31 196 35 139 5 205 -9 330 -70 109 -53 226 -166
288 -278 59 -108 99 -140 177 -140 70 0 125 37 156 105 26 56 24 90 -10 162
-100 211 -310 407 -531 498 -160 65 -398 91 -557 61z"/>
<path d="M9087 5874 c-312 -56 -583 -259 -727 -544 -42 -83 -44 -143 -6 -200
50 -76 145 -100 226 -57 35 19 52 38 93 112 72 127 176 229 288 283 120 59
200 75 334 69 129 -5 210 -28 303 -84 144 -88 238 -202 293 -355 38 -106 75
-150 140 -166 84 -21 161 15 199 94 28 56 23 100 -20 211 -174 452 -651 723
-1123 637z"/>
<path d="M1510 8195 c-319 -45 -554 -160 -706 -344 -197 -237 -248 -577 -132
-871 80 -202 251 -392 450 -499 197 -107 397 -160 633 -168 284 -10 510 39
755 162 250 126 438 285 749 635 85 96 212 234 282 305 140 144 154 170 147
266 -5 68 -42 130 -95 162 -37 21 -577 178 -817 237 -173 42 -368 80 -548 106
-156 22 -590 28 -718 9z m545 -205 c354 -33 746 -122 1253 -282 l163 -52 -76
-76 -76 -77 -207 59 c-679 192 -1062 257 -1437 245 -312 -11 -501 -64 -673
-191 -34 -25 -81 -71 -105 -101 -52 -68 -59 -51 -18 47 38 89 102 176 173 235
112 93 315 170 506 192 110 12 368 13 497 1z"/>
</g>
</svg>
