<svg width="125" height="101" viewBox="0 0 125 101" fill="none" xmlns="http://www.w3.org/2000/svg">
<path d="M79.4457 99.4884C103.5 99.4884 123 82.0263 123 60.4857C123 38.945 103.5 21.4829 79.4457 21.4829C55.3913 21.4829 35.8913 38.945 35.8913 60.4857C35.8913 82.0263 55.3913 99.4884 79.4457 99.4884Z" fill="#435E8A"/>
<path d="M78.5 100C102.524 100 122 82.5393 122 61.0002C122 39.4611 102.524 22.0002 78.5 22.0002C54.4756 22.0002 35 39.4611 35 61.0002C35 82.5393 54.4756 100 78.5 100Z" fill="#53688B"/>
<path d="M78 100C101.196 100 120 83.2109 120 62.5002C120 41.7896 101.196 25.0002 78 25.0002C54.804 25.0002 36 41.7896 36 62.5002C36 83.2109 54.804 100 78 100Z" fill="#425471"/>
<path d="M95.2289 44.595C89.6847 44.595 84.7898 46.6373 78.8461 46.6373C73.3019 46.6373 68.8066 44.595 62.4632 44.595C53.5226 44.595 46.2802 52.2162 46.2802 61.1823C46.2802 66.2134 48.6776 70.547 52.174 73.6353C54.8712 76.0263 59.4164 78.9652 65.56 78.9652C73.3019 78.9652 73.3518 75.2791 79.0958 75.2791C84.4402 75.2791 84.4902 78.9652 92.232 78.9652C98.3756 78.9652 102.921 76.0263 105.618 73.6353C109.114 70.547 111.512 66.2134 111.512 61.1823C111.412 52.2162 104.17 44.595 95.2289 44.595Z" fill="#62779C"/>
<path d="M93.8286 77.2222C86.0867 77.2222 86.0368 73.5361 80.6924 73.5361C74.9484 73.5361 74.8985 77.2222 67.1566 77.2222C61.013 77.2222 56.4678 74.2833 53.7706 71.8923C50.2742 68.804 47.8768 64.4704 47.8768 59.4393C47.8768 55.305 49.4251 51.4196 52.0224 48.4807C48.4761 51.5691 46.1785 56.1518 46.1785 61.1329C46.1785 66.164 48.576 70.4976 52.0724 73.5859C54.7695 75.9769 59.3148 78.9158 65.4583 78.9158C73.2002 78.9158 73.2502 75.2297 78.9942 75.2297C84.3386 75.2297 84.3885 78.9158 92.1304 78.9158C98.274 78.9158 102.819 75.9769 105.516 73.5859C106.116 73.0878 106.615 72.5399 107.165 71.9421C104.467 74.3331 99.9223 77.2222 93.8286 77.2222Z" fill="#53688B"/>
<path d="M61.1651 47.1354C67.5084 47.1354 72.0037 49.1777 77.5479 49.1777C83.4917 49.1777 88.3866 47.1354 93.9308 47.1354C102.871 47.1354 110.114 54.7566 110.114 63.7228C110.114 66.4624 109.365 69.0526 108.166 71.2942C110.413 68.5047 111.812 65.0179 111.812 61.1824C111.812 52.266 104.57 44.595 95.629 44.595C90.0848 44.595 85.1899 46.6373 79.2461 46.6373C73.7019 46.6373 69.2066 44.595 62.8633 44.595C56.7697 44.595 51.4752 48.1316 48.7281 53.2124C51.675 49.5264 56.1703 47.1354 61.1651 47.1354Z" fill="#53688B"/>
<path d="M79.4426 99.4877C103.497 99.4877 122.997 82.0255 122.997 60.4849C122.997 38.9443 103.497 21.4822 79.4426 21.4822C55.3882 21.4822 35.8882 38.9443 35.8882 60.4849C35.8882 82.0255 55.3882 99.4877 79.4426 99.4877Z" stroke="#26344B" stroke-width="2.19013" stroke-miterlimit="10"/>
<path d="M95.8262 43.947C90.0822 43.947 84.9875 46.0391 78.8439 46.0391C73.1 46.0391 68.4548 43.947 61.8617 43.947C52.5714 43.947 45.0793 51.8671 45.0793 61.1321C45.0793 66.3126 47.5767 70.8455 51.1729 74.0833C53.97 76.5739 58.6651 79.6124 65.0584 79.6124C73.05 79.6124 73.1499 75.7769 79.0937 75.7769C84.6379 75.7769 84.6878 79.6124 92.6794 79.6124C99.0728 79.6124 103.768 76.5739 106.565 74.0833C110.161 70.8953 112.659 66.3624 112.659 61.1321C112.609 51.8671 105.116 43.947 95.8262 43.947Z" stroke="#26344B" stroke-width="2.19013" stroke-miterlimit="10"/>
<path d="M54.5199 64.2698C55.5688 60.4343 59.1151 57.595 63.2607 57.595C66.9569 57.595 70.1036 59.7867 71.5521 62.9249" stroke="#26344B" stroke-width="2.12695" stroke-miterlimit="10" stroke-linecap="round"/>
<path d="M102.22 64.2698C101.171 60.4343 97.6252 57.595 93.4795 57.595C89.7834 57.595 86.6367 59.7867 85.1882 62.9249" stroke="#26344B" stroke-width="2.12695" stroke-miterlimit="10" stroke-linecap="round"/>
<path d="M38.9354 32.2415C39.5348 32.3411 40.0842 31.843 40.0343 31.2453C39.7845 25.7161 38.5858 20.2866 36.488 15.156C35.0894 11.7688 33.2913 8.48122 30.6441 5.84119C27.9969 3.20115 24.5505 1.35811 20.8543 1.15886C17.1582 0.959615 13.2623 2.65322 11.3643 5.79137C9.41631 8.97934 9.716 13.1635 11.4142 16.4511C13.1124 19.7387 16.0094 22.3289 19.1062 24.421C25.0499 28.5554 31.9927 31.1456 38.9354 32.2415Z" fill="#53688B"/>
<path d="M34.7886 31.1955C35.3381 31.2951 35.7876 30.8966 35.7376 30.3487C35.4879 25.5667 34.439 20.8346 32.541 16.4013C31.2923 13.4624 29.694 10.5733 27.3964 8.33178C25.0988 6.09024 22.052 4.44644 18.8054 4.2472C15.5588 4.04795 12.2123 5.49249 10.5141 8.23215C8.81583 10.9718 9.11552 14.6081 10.6139 17.4972C12.1124 20.3863 14.6597 22.6278 17.3569 24.4708C22.6513 27.9577 28.745 30.249 34.7886 31.1955Z" fill="#425471"/>
<path d="M38.7348 33.3877C39.3842 33.4873 39.9835 33.288 40.483 32.8895C40.9825 32.4412 41.2322 31.8435 41.1823 31.1959C40.9325 25.5174 39.6838 19.9882 37.5361 14.7082C35.8379 10.5738 33.84 7.43564 31.4425 5.04467C28.3957 2.00614 24.6496 0.212909 20.8536 0.0136609C16.5081 -0.185587 12.3624 1.80689 10.3146 5.1941C8.31669 8.48169 8.31669 13.0146 10.3146 16.9995C11.863 20.0381 14.5102 22.7777 18.4061 25.4177C24.4498 29.5521 31.4425 32.2918 38.7348 33.3877ZM21.8525 2.45445C24.6995 2.85294 27.4467 4.3473 29.7942 6.68846C31.9919 8.88019 33.79 11.7693 35.3883 15.6048C37.3862 20.5362 38.585 25.7166 38.8347 31.0465C31.9919 29.9506 25.3988 27.3604 19.8047 23.5747C16.2584 21.1339 13.8609 18.6931 12.5123 16.0033C10.864 12.7157 10.8141 9.07943 12.4124 6.4394C14.0107 3.84918 17.4072 2.20539 20.8036 2.35482C21.1532 2.35482 21.5029 2.40463 21.8525 2.45445Z" fill="#26344B"/>
<path d="M31.7449 37.5719C32.3942 36.9244 32.1445 35.8285 31.2454 35.5795C27.5493 34.5334 23.7033 33.2881 19.9573 32.5907C12.7648 31.2458 4.87305 31.2956 2.12593 36.7749C-0.271563 41.5071 2.47556 46.4883 6.17169 48.3811C11.2664 50.9713 16.9604 50.4234 21.3558 47.6339C25.6513 44.9939 27.849 41.258 31.7449 37.5719Z" fill="#53688B"/>
<path d="M29.6708 40.6473C30.2653 40.1327 30.0176 39.1972 29.225 39.0101C25.906 38.1681 22.3889 37.139 18.9709 36.5777C12.4816 35.5018 5.34834 35.5486 2.82197 40.086C0.642362 43.9685 3.11919 48.0849 6.48769 49.6285C11.0946 51.7803 16.2464 51.2657 20.2589 49.0204C24.1227 46.7751 26.1042 43.7346 29.6708 40.6473Z" fill="#425471"/>
<path d="M10.7163 51.071C14.5623 51.619 18.5082 50.822 22.0045 48.6303C24.9015 46.837 26.8494 44.6453 28.8973 42.3041C30.0461 41.009 31.1949 39.7139 32.5934 38.4188C33.1928 37.8211 33.4425 36.9743 33.2428 36.1275C33.043 35.2807 32.3936 34.6331 31.5945 34.4338C30.7953 34.1848 29.9962 33.9855 29.197 33.7365C26.2501 32.8897 23.2033 31.9931 20.1565 31.4451C10.1669 29.6021 3.57382 31.2459 1.02648 36.2769C-1.67069 41.6068 1.32617 47.2355 5.62167 49.4272C7.26995 50.274 8.96817 50.822 10.7163 51.071ZM30.9452 36.7252C29.4967 38.1199 28.2979 39.4649 27.0992 40.76C25.1512 42.9517 23.3032 45.0438 20.7059 46.6378C16.3604 49.3276 11.1159 49.6265 6.67058 47.3351C2.42502 45.1932 1.52596 40.4611 3.12429 37.2731C5.67162 32.2421 13.5634 32.541 19.7069 33.6867C22.6039 34.2346 25.6008 35.0814 28.4977 35.9282C29.3468 36.2271 30.146 36.4761 30.9452 36.7252L31.7443 37.572L30.9452 36.7252Z" fill="#26344B"/>
</svg>
