<svg width="284" height="68" viewBox="0 0 284 68" fill="none" xmlns="http://www.w3.org/2000/svg">
<path d="M109.969 15.3415C111.273 15.3415 112.464 15.5576 113.542 15.9897C114.637 16.4218 115.593 16.9922 116.41 17.7009L113.802 20.3974C113.159 19.9307 112.577 19.5936 112.055 19.3862C111.534 19.1788 110.943 19.0751 110.282 19.0751C109.013 19.0751 108.039 19.5591 107.361 20.527C106.683 21.4777 106.344 22.9296 106.344 24.8828C106.344 26.3521 106.449 27.5102 106.657 28.3571C106.866 29.1868 107.188 29.7745 107.622 30.1202C108.074 30.4659 108.665 30.6388 109.395 30.6388C110.039 30.6388 110.656 30.4918 111.247 30.198V26.9052H109.421L108.926 23.3013H116.41V32.35C115.454 33.0068 114.359 33.5167 113.124 33.8797C111.89 34.2427 110.699 34.4242 109.552 34.4242C106.579 34.4242 104.38 33.6204 102.954 32.0129C101.529 30.3881 100.816 28.0028 100.816 24.8569C100.816 22.8691 101.207 21.1579 101.99 19.7233C102.772 18.2886 103.858 17.1996 105.249 16.4564C106.64 15.7131 108.213 15.3415 109.969 15.3415Z" fill="#A40162"/>
<path d="M131.543 26.8015C131.543 27.2336 131.508 27.7781 131.438 28.4349H122.99C123.129 29.3683 123.416 29.9992 123.85 30.3276C124.302 30.6388 124.945 30.7943 125.78 30.7943C126.267 30.7943 126.762 30.6993 127.266 30.5091C127.77 30.3017 128.327 29.9906 128.935 29.5757L131.021 32.3759C129.335 33.7414 127.423 34.4242 125.284 34.4242C122.816 34.4242 120.947 33.7501 119.678 32.4018C118.409 31.0363 117.774 29.2387 117.774 27.0089C117.774 25.6261 118.035 24.3729 118.557 23.2494C119.096 22.1086 119.887 21.2098 120.93 20.5529C121.973 19.8788 123.233 19.5418 124.711 19.5418C126.084 19.5418 127.284 19.827 128.309 20.3974C129.335 20.9678 130.126 21.7975 130.682 22.8864C131.256 23.9754 131.543 25.2804 131.543 26.8015ZM126.458 25.3495C126.44 24.5371 126.31 23.9062 126.067 23.4568C125.841 23.0074 125.423 22.7827 124.815 22.7827C124.241 22.7827 123.807 22.9815 123.511 23.379C123.233 23.7766 123.05 24.4939 122.964 25.531H126.458V25.3495Z" fill="#A40162"/>
<path d="M139.461 19.5418C141.686 19.5418 143.433 20.19 144.702 21.4863C145.989 22.7827 146.632 24.6236 146.632 27.0089C146.632 28.4954 146.336 29.8004 145.745 30.924C145.171 32.0475 144.346 32.9117 143.268 33.5167C142.19 34.1217 140.921 34.4242 139.461 34.4242C137.235 34.4242 135.48 33.776 134.193 32.4796C132.924 31.1832 132.29 29.3424 132.29 26.957C132.29 25.4705 132.576 24.1655 133.15 23.042C133.741 21.9185 134.576 21.0542 135.654 20.4492C136.731 19.8443 138 19.5418 139.461 19.5418ZM139.461 23.2235C138.8 23.2235 138.322 23.5173 138.026 24.105C137.731 24.6927 137.583 25.6434 137.583 26.957C137.583 28.3226 137.731 29.2992 138.026 29.8869C138.322 30.4573 138.8 30.7425 139.461 30.7425C140.121 30.7425 140.599 30.4486 140.895 29.8609C141.19 29.2732 141.338 28.3226 141.338 27.0089C141.338 25.6434 141.19 24.6754 140.895 24.105C140.599 23.5173 140.121 23.2235 139.461 23.2235Z" fill="#A40162"/>
<path d="M155.497 17.7787C154.993 17.7787 154.628 17.9083 154.402 18.1676C154.176 18.4269 154.063 18.8763 154.063 19.5158V20.0603H157.297L156.723 23.5346H154.063V33.9056H148.9V23.5346H147.022V20.0603H148.9V19.2566C148.9 17.7528 149.404 16.5169 150.412 15.5489C151.421 14.581 152.881 14.097 154.793 14.097C155.523 14.097 156.262 14.1921 157.01 14.3822C157.757 14.555 158.383 14.7797 158.887 15.0563L157.531 18.2972C156.888 17.9515 156.21 17.7787 155.497 17.7787Z" fill="#A40162"/>
<path d="M165.123 17.7787C164.619 17.7787 164.254 17.9083 164.028 18.1676C163.802 18.4269 163.689 18.8763 163.689 19.5158V20.0603H166.923L166.349 23.5346H163.689V33.9056H158.526V23.5346H156.648V20.0603H158.526V19.2566C158.526 17.7528 159.03 16.5169 160.038 15.5489C161.047 14.581 162.507 14.097 164.419 14.097C165.149 14.097 165.888 14.1921 166.636 14.3822C167.383 14.555 168.009 14.7797 168.513 15.0563L167.157 18.2972C166.514 17.9515 165.836 17.7787 165.123 17.7787Z" fill="#A40162"/>
<path d="M175.871 19.6196C176.323 19.6196 176.792 19.6973 177.279 19.8529L176.47 24.8051C176.001 24.6668 175.575 24.5976 175.193 24.5976C174.428 24.5976 173.854 24.8483 173.472 25.3495C173.106 25.8508 172.811 26.6027 172.585 27.6052V33.9056H167.422V20.0603H171.933L172.35 22.6531C172.646 21.737 173.115 21.0024 173.758 20.4492C174.402 19.8961 175.106 19.6196 175.871 19.6196Z" fill="#A40162"/>
<path d="M190.444 26.8015C190.444 27.2336 190.41 27.7781 190.34 28.4349H181.891C182.03 29.3683 182.317 29.9992 182.752 30.3276C183.204 30.6388 183.847 30.7943 184.681 30.7943C185.168 30.7943 185.664 30.6993 186.168 30.5091C186.672 30.3017 187.228 29.9906 187.837 29.5757L189.923 32.3759C188.237 33.7414 186.324 34.4242 184.186 34.4242C181.717 34.4242 179.849 33.7501 178.579 32.4018C177.31 31.0363 176.676 29.2387 176.676 27.0089C176.676 25.6261 176.937 24.3729 177.458 23.2494C177.997 22.1086 178.788 21.2098 179.831 20.5529C180.874 19.8788 182.135 19.5418 183.612 19.5418C184.986 19.5418 186.185 19.827 187.211 20.3974C188.237 20.9678 189.028 21.7975 189.584 22.8864C190.158 23.9754 190.444 25.2804 190.444 26.8015ZM185.359 25.3495C185.342 24.5371 185.212 23.9062 184.968 23.4568C184.742 23.0074 184.325 22.7827 183.717 22.7827C183.143 22.7827 182.708 22.9815 182.413 23.379C182.135 23.7766 181.952 24.4939 181.865 25.531H185.359V25.3495Z" fill="#A40162"/>
<path d="M200.533 33.8797C199.942 35.7983 198.933 37.2503 197.508 38.2355C196.082 39.2208 194.205 39.748 191.875 39.8171L191.328 36.3169C192.666 36.1786 193.657 35.9366 194.3 35.5909C194.961 35.2452 195.474 34.6835 195.839 33.9056H194.066L190.102 20.0603H195.578L197.325 30.7684L199.49 20.0603H204.809L200.533 33.8797Z" fill="#A40162"/>
<path d="M110.82 61.8272H108.527L103.472 51.3266C103.544 52.1523 103.598 52.9181 103.634 53.6242C103.683 54.3182 103.707 55.1619 103.707 56.1551V61.8272H102.1V49.4598H104.339L109.448 59.9784C109.411 59.6673 109.363 59.1228 109.303 58.345C109.243 57.5671 109.213 56.8551 109.213 56.2089V49.4598H110.82V61.8272Z" fill="#32435C"/>
<path d="M115.994 52.3677V61.8272H114.333V52.3677H115.994ZM115.145 47.8264C115.494 47.8264 115.777 47.9341 115.994 48.1495C116.211 48.3649 116.319 48.6341 116.319 48.9572C116.319 49.2803 116.211 49.5495 115.994 49.7649C115.777 49.9684 115.494 50.0701 115.145 50.0701C114.808 50.0701 114.532 49.9684 114.315 49.7649C114.098 49.5495 113.99 49.2803 113.99 48.9572C113.99 48.6341 114.098 48.3649 114.315 48.1495C114.532 47.9341 114.808 47.8264 115.145 47.8264Z" fill="#32435C"/>
<path d="M123.905 52.1523C124.772 52.1523 125.446 52.4095 125.927 52.9241C126.421 53.4387 126.667 54.1447 126.667 55.0422V61.8272H125.006V55.2755C125.006 54.6054 124.88 54.1327 124.627 53.8575C124.375 53.5823 124.002 53.4447 123.508 53.4447C123.003 53.4447 122.557 53.5883 122.172 53.8755C121.787 54.1626 121.426 54.5755 121.089 55.114V61.8272H119.428V52.3677H120.854L120.999 53.7678C121.336 53.2652 121.751 52.8703 122.244 52.5831C122.75 52.2959 123.303 52.1523 123.905 52.1523Z" fill="#32435C"/>
<path d="M131.631 61.2528C131.631 62.1264 131.522 62.8264 131.306 63.353C131.089 63.8795 130.77 64.3043 130.349 64.6274C129.94 64.9625 129.362 65.2975 128.616 65.6326L128.129 64.43C128.598 64.2146 128.959 63.9992 129.212 63.7838C129.464 63.5803 129.651 63.2871 129.771 62.9042C129.904 62.5333 129.97 62.0187 129.97 61.3605V52.3677H131.631V61.2528ZM130.8 47.8264C131.149 47.8264 131.432 47.9341 131.649 48.1495C131.865 48.3649 131.974 48.6341 131.974 48.9572C131.974 49.2803 131.865 49.5495 131.649 49.7649C131.432 49.9684 131.149 50.0701 130.8 50.0701C130.463 50.0701 130.187 49.9684 129.97 49.7649C129.753 49.5495 129.645 49.2803 129.645 48.9572C129.645 48.6341 129.753 48.3649 129.97 48.1495C130.187 47.9341 130.463 47.8264 130.8 47.8264Z" fill="#32435C"/>
<path d="M141.475 59.6194C141.475 60.0023 141.541 60.2895 141.673 60.481C141.806 60.6605 142.004 60.7981 142.269 60.8938L141.89 62.0426C141.396 61.9828 140.999 61.8452 140.698 61.6298C140.397 61.4144 140.175 61.0793 140.03 60.6246C139.393 61.5699 138.448 62.0426 137.196 62.0426C136.257 62.0426 135.517 61.7794 134.976 61.2528C134.434 60.7263 134.163 60.0382 134.163 59.1886C134.163 58.1834 134.524 57.4116 135.246 56.8731C135.981 56.3346 137.016 56.0653 138.351 56.0653H139.814V55.3653C139.814 54.6952 139.651 54.2165 139.326 53.9293C139.001 53.6421 138.502 53.4985 137.828 53.4985C137.13 53.4985 136.275 53.666 135.264 54.0011L134.849 52.7985C136.029 52.3677 137.124 52.1523 138.135 52.1523C139.254 52.1523 140.091 52.4275 140.644 52.978C141.198 53.5165 141.475 54.2883 141.475 55.2935V59.6194ZM137.575 60.8041C138.526 60.8041 139.272 60.3135 139.814 59.3322V57.1603H138.568C136.811 57.1603 135.932 57.8065 135.932 59.0989C135.932 59.6613 136.071 60.0861 136.348 60.3733C136.624 60.6605 137.034 60.8041 137.575 60.8041Z" fill="#32435C"/>
<path d="M151.469 49.4598V60.3374H156.578L156.379 61.8272H149.754V49.4598H151.469Z" fill="#32435C"/>
<path d="M165.381 56.8192C165.381 57.0945 165.369 57.3757 165.345 57.6629H159.279C159.352 58.704 159.616 59.4698 160.074 59.9604C160.531 60.4511 161.121 60.6964 161.843 60.6964C162.3 60.6964 162.722 60.6306 163.107 60.4989C163.492 60.3673 163.895 60.1579 164.316 59.8707L165.038 60.8579C164.027 61.6477 162.92 62.0426 161.717 62.0426C160.393 62.0426 159.358 61.6118 158.611 60.7502C157.877 59.8886 157.51 58.704 157.51 57.1962C157.51 56.2149 157.667 55.3473 157.98 54.5934C158.305 53.8276 158.762 53.2293 159.352 52.7985C159.953 52.3677 160.658 52.1523 161.464 52.1523C162.728 52.1523 163.696 52.5651 164.37 53.3908C165.044 54.2165 165.381 55.3593 165.381 56.8192ZM163.739 56.3346C163.739 55.4012 163.552 54.6892 163.179 54.1985C162.806 53.7079 162.246 53.4626 161.5 53.4626C160.14 53.4626 159.4 54.4558 159.279 56.4423H163.739V56.3346Z" fill="#32435C"/>
<path d="M174.266 59.6194C174.266 60.0023 174.332 60.2895 174.465 60.481C174.597 60.6605 174.796 60.7981 175.061 60.8938L174.682 62.0426C174.188 61.9828 173.791 61.8452 173.49 61.6298C173.189 61.4144 172.966 61.0793 172.822 60.6246C172.184 61.5699 171.239 62.0426 169.988 62.0426C169.049 62.0426 168.309 61.7794 167.767 61.2528C167.226 60.7263 166.955 60.0382 166.955 59.1886C166.955 58.1834 167.316 57.4116 168.038 56.8731C168.772 56.3346 169.807 56.0653 171.143 56.0653H172.605V55.3653C172.605 54.6952 172.443 54.2165 172.118 53.9293C171.793 53.6421 171.294 53.4985 170.62 53.4985C169.922 53.4985 169.067 53.666 168.056 54.0011L167.641 52.7985C168.82 52.3677 169.916 52.1523 170.926 52.1523C172.046 52.1523 172.882 52.4275 173.436 52.978C173.989 53.5165 174.266 54.2883 174.266 55.2935V59.6194ZM170.367 60.8041C171.318 60.8041 172.064 60.3135 172.605 59.3322V57.1603H171.36C169.603 57.1603 168.724 57.8065 168.724 59.0989C168.724 59.6613 168.862 60.0861 169.139 60.3733C169.416 60.6605 169.825 60.8041 170.367 60.8041Z" fill="#32435C"/>
<path d="M185.043 48.5623V61.8272H183.581L183.418 60.5169C183.105 60.9956 182.714 61.3725 182.245 61.6477C181.775 61.911 181.252 62.0426 180.674 62.0426C179.543 62.0426 178.658 61.5999 178.02 60.7143C177.395 59.8288 177.082 58.6381 177.082 57.1423C177.082 56.173 177.232 55.3114 177.533 54.5575C177.834 53.8037 178.267 53.2173 178.833 52.7985C179.398 52.3677 180.06 52.1523 180.819 52.1523C181.793 52.1523 182.648 52.5412 183.382 53.319V48.3648L185.043 48.5623ZM181.035 60.7323C181.541 60.7323 181.974 60.6186 182.335 60.3912C182.696 60.1519 183.045 59.7989 183.382 59.3322V54.7011C183.069 54.2943 182.732 53.9891 182.371 53.7857C182.022 53.5703 181.625 53.4626 181.18 53.4626C180.445 53.4626 179.874 53.7678 179.465 54.378C179.067 54.9883 178.869 55.8978 178.869 57.1064C178.869 58.327 179.055 59.2365 179.428 59.8348C179.802 60.4331 180.337 60.7323 181.035 60.7323Z" fill="#32435C"/>
<path d="M195.934 49.4598C197.812 49.4598 199.316 49.8966 200.448 50.7701C201.591 51.6317 202.163 53.2352 202.163 55.5807C202.163 57.8663 201.591 59.4818 200.448 60.4271C199.316 61.3605 197.938 61.8272 196.314 61.8272H193.335V49.4598H195.934ZM195.05 50.824V60.481H196.44C197.595 60.481 198.534 60.128 199.256 59.4219C199.978 58.7159 200.339 57.4355 200.339 55.5807C200.339 54.2763 200.153 53.2771 199.78 52.5831C199.407 51.877 198.931 51.4103 198.354 51.183C197.776 50.9436 197.096 50.824 196.314 50.824H195.05Z" fill="#32435C"/>
<path d="M212.048 56.8192C212.048 57.0945 212.036 57.3757 212.012 57.6629H205.946C206.018 58.704 206.283 59.4698 206.74 59.9604C207.198 60.4511 207.787 60.6964 208.509 60.6964C208.967 60.6964 209.388 60.6306 209.773 60.4989C210.158 60.3673 210.561 60.1579 210.983 59.8707L211.705 60.8579C210.694 61.6477 209.587 62.0426 208.383 62.0426C207.059 62.0426 206.024 61.6118 205.278 60.7502C204.544 59.8886 204.177 58.704 204.177 57.1962C204.177 56.2149 204.333 55.3473 204.646 54.5934C204.971 53.8276 205.428 53.2293 206.018 52.7985C206.62 52.3677 207.324 52.1523 208.13 52.1523C209.394 52.1523 210.363 52.5651 211.037 53.3908C211.711 54.2165 212.048 55.3593 212.048 56.8192ZM210.405 56.3346C210.405 55.4012 210.218 54.6892 209.845 54.1985C209.472 53.7079 208.913 53.4626 208.166 53.4626C206.806 53.4626 206.066 54.4558 205.946 56.4423H210.405V56.3346Z" fill="#32435C"/>
<path d="M217.282 52.1523C217.932 52.1523 218.515 52.242 219.033 52.4215C219.55 52.601 220.044 52.8703 220.513 53.2293L219.809 54.2703C219.376 53.9951 218.961 53.7917 218.564 53.6601C218.178 53.5284 217.769 53.4626 217.336 53.4626C216.794 53.4626 216.367 53.5763 216.054 53.8037C215.741 54.019 215.585 54.3182 215.585 54.7011C215.585 55.0841 215.729 55.3832 216.018 55.5986C216.319 55.814 216.855 56.0234 217.625 56.2269C218.684 56.4901 219.472 56.8491 219.99 57.3039C220.519 57.7586 220.784 58.3809 220.784 59.1707C220.784 60.104 220.417 60.8161 219.683 61.3067C218.961 61.7973 218.076 62.0426 217.029 62.0426C215.585 62.0426 214.387 61.6298 213.436 60.8041L214.321 59.7989C215.127 60.4092 216.018 60.7143 216.993 60.7143C217.619 60.7143 218.112 60.5887 218.473 60.3374C218.846 60.0741 219.033 59.7211 219.033 59.2784C219.033 58.9553 218.967 58.698 218.834 58.5065C218.702 58.3031 218.473 58.1296 218.148 57.986C217.823 57.8304 217.348 57.6688 216.722 57.5013C215.711 57.2381 214.977 56.885 214.52 56.4423C214.074 55.9995 213.852 55.4371 213.852 54.755C213.852 54.2644 213.996 53.8216 214.285 53.4267C214.586 53.0198 214.995 52.7087 215.513 52.4933C216.042 52.2659 216.632 52.1523 217.282 52.1523Z" fill="#32435C"/>
<path d="M224.788 52.3677V61.8272H223.127V52.3677H224.788ZM223.94 47.8264C224.289 47.8264 224.572 47.9341 224.788 48.1495C225.005 48.3649 225.113 48.6341 225.113 48.9572C225.113 49.2803 225.005 49.5495 224.788 49.7649C224.572 49.9684 224.289 50.0701 223.94 50.0701C223.603 50.0701 223.326 49.9684 223.109 49.7649C222.893 49.5495 222.784 49.2803 222.784 48.9572C222.784 48.6341 222.893 48.3649 223.109 48.1495C223.326 47.9341 223.603 47.8264 223.94 47.8264Z" fill="#32435C"/>
<path d="M235.895 52.7985C235.534 52.9181 235.137 52.9959 234.703 53.0318C234.27 53.0677 233.741 53.0857 233.115 53.0857C234.234 53.5883 234.794 54.384 234.794 55.473C234.794 56.4183 234.469 57.1902 233.819 57.7885C233.169 58.3868 232.284 58.686 231.165 58.686C230.732 58.686 230.329 58.6262 229.955 58.5065C229.811 58.6022 229.697 58.7339 229.612 58.9014C229.528 59.057 229.486 59.2185 229.486 59.3861C229.486 59.9006 229.901 60.1579 230.732 60.1579H232.248C232.886 60.1579 233.452 60.2716 233.945 60.4989C234.439 60.7263 234.818 61.0374 235.082 61.4323C235.359 61.8272 235.498 62.276 235.498 62.7786C235.498 63.7 235.119 64.406 234.36 64.8966C233.602 65.3992 232.495 65.6505 231.039 65.6505C230.016 65.6505 229.203 65.5428 228.601 65.3274C228.012 65.124 227.59 64.8129 227.338 64.3941C227.085 63.9752 226.959 63.4367 226.959 62.7786H228.457C228.457 63.1615 228.529 63.4607 228.674 63.6761C228.818 63.9034 229.077 64.071 229.45 64.1787C229.823 64.2983 230.353 64.3582 231.039 64.3582C232.038 64.3582 232.748 64.2325 233.169 63.9812C233.602 63.7419 233.819 63.3769 233.819 62.8863C233.819 62.4435 233.65 62.1084 233.313 61.8811C232.976 61.6537 232.507 61.54 231.905 61.54H230.407C229.6 61.54 228.987 61.3725 228.565 61.0374C228.156 60.6904 227.952 60.2596 227.952 59.745C227.952 59.4339 228.042 59.1348 228.222 58.8476C228.403 58.5604 228.662 58.3031 228.999 58.0757C228.445 57.7885 228.036 57.4355 227.771 57.0167C227.518 56.5859 227.392 56.0653 227.392 55.455C227.392 54.8208 227.548 54.2524 227.861 53.7498C228.186 53.2472 228.626 52.8583 229.179 52.5831C229.745 52.2959 230.371 52.1523 231.057 52.1523C231.803 52.1642 232.429 52.1403 232.934 52.0805C233.44 52.0087 233.855 51.9189 234.18 51.8112C234.517 51.6916 234.926 51.524 235.407 51.3086L235.895 52.7985ZM231.057 53.337C230.431 53.337 229.943 53.5344 229.594 53.9293C229.257 54.3122 229.089 54.8208 229.089 55.455C229.089 56.1012 229.263 56.6218 229.612 57.0167C229.961 57.3996 230.455 57.5911 231.093 57.5911C231.743 57.5911 232.236 57.4056 232.573 57.0346C232.922 56.6517 233.097 56.1192 233.097 55.4371C233.097 54.037 232.417 53.337 231.057 53.337Z" fill="#32435C"/>
<path d="M242.079 52.1523C242.945 52.1523 243.619 52.4095 244.101 52.9241C244.594 53.4387 244.841 54.1447 244.841 55.0422V61.8272H243.18V55.2755C243.18 54.6054 243.053 54.1327 242.801 53.8575C242.548 53.5823 242.175 53.4447 241.681 53.4447C241.176 53.4447 240.731 53.5883 240.346 53.8755C239.96 54.1626 239.599 54.5755 239.262 55.114V61.8272H237.601V52.3677H239.028L239.172 53.7678C239.509 53.2652 239.924 52.8703 240.418 52.5831C240.923 52.2959 241.477 52.1523 242.079 52.1523Z" fill="#32435C"/>
<path d="M255.365 56.8192C255.365 57.0945 255.352 57.3757 255.328 57.6629H249.263C249.335 58.704 249.6 59.4698 250.057 59.9604C250.514 60.4511 251.104 60.6964 251.826 60.6964C252.283 60.6964 252.705 60.6306 253.09 60.4989C253.475 60.3673 253.878 60.1579 254.299 59.8707L255.021 60.8579C254.011 61.6477 252.903 62.0426 251.7 62.0426C250.376 62.0426 249.341 61.6118 248.595 60.7502C247.86 59.8886 247.493 58.704 247.493 57.1962C247.493 56.2149 247.65 55.3473 247.963 54.5934C248.288 53.8276 248.745 53.2293 249.335 52.7985C249.937 52.3677 250.641 52.1523 251.447 52.1523C252.711 52.1523 253.68 52.5651 254.354 53.3908C255.028 54.2165 255.365 55.3593 255.365 56.8192ZM253.722 56.3346C253.722 55.4012 253.535 54.6892 253.162 54.1985C252.789 53.7079 252.229 53.4626 251.483 53.4626C250.123 53.4626 249.383 54.4558 249.263 56.4423H253.722V56.3346Z" fill="#32435C"/>
<path d="M262.151 52.1523C262.488 52.1523 262.801 52.1882 263.09 52.26L262.783 53.8755C262.494 53.8037 262.217 53.7678 261.952 53.7678C261.363 53.7678 260.887 53.9831 260.526 54.4139C260.165 54.8447 259.882 55.5149 259.678 56.4243V61.8272H258.017V52.3677H259.443L259.606 54.2883C259.858 53.5823 260.201 53.0498 260.635 52.6908C261.068 52.3318 261.573 52.1523 262.151 52.1523Z" fill="#32435C"/>
<path d="M219.276 15.2055C221.519 15.2055 223.466 15.9142 225.117 17.3316L222.64 20.2355C222.119 19.8552 221.606 19.5613 221.102 19.3539C220.615 19.1465 220.093 19.0428 219.537 19.0428C218.477 19.0428 217.651 19.5181 217.06 20.4688C216.486 21.4195 216.199 22.8282 216.199 24.695C216.199 26.5618 216.495 27.9619 217.086 28.8953C217.677 29.8114 218.52 30.2694 219.615 30.2694C220.206 30.2694 220.754 30.1484 221.258 29.9064C221.78 29.6645 222.353 29.3015 222.979 28.8175L225.326 31.7732C224.596 32.4992 223.709 33.1042 222.666 33.5882C221.64 34.0549 220.537 34.2882 219.354 34.2882C217.564 34.2882 216.017 33.9252 214.713 33.1992C213.409 32.456 212.401 31.367 211.688 29.9324C210.975 28.4977 210.619 26.7519 210.619 24.695C210.619 22.7245 210.984 21.0306 211.714 19.6132C212.444 18.1785 213.461 17.0896 214.765 16.3463C216.069 15.5858 217.573 15.2055 219.276 15.2055Z" fill="#32435C"/>
<path d="M234.615 19.4836C235.067 19.4836 235.536 19.5614 236.023 19.7169L235.215 24.6691C234.745 24.5308 234.319 24.4617 233.937 24.4617C233.172 24.4617 232.598 24.7123 232.216 25.2136C231.851 25.7148 231.555 26.4667 231.329 27.4693V33.7696H226.166V19.9243H230.677L231.095 22.5171C231.39 21.601 231.86 20.8664 232.503 20.3132C233.146 19.7601 233.85 19.4836 234.615 19.4836Z" fill="#32435C"/>
<path d="M242.591 19.4058C244.817 19.4058 246.564 20.054 247.833 21.3504C249.119 22.6467 249.762 24.4876 249.762 26.8729C249.762 28.3594 249.467 29.6645 248.876 30.788C248.302 31.9115 247.476 32.7758 246.399 33.3807C245.321 33.9857 244.052 34.2882 242.591 34.2882C240.366 34.2882 238.61 33.64 237.324 32.3436C236.055 31.0473 235.42 29.2064 235.42 26.8211C235.42 25.3346 235.707 24.0295 236.281 22.906C236.872 21.7825 237.706 20.9182 238.784 20.3132C239.862 19.7083 241.131 19.4058 242.591 19.4058ZM242.591 23.0875C241.931 23.0875 241.453 23.3813 241.157 23.969C240.862 24.5567 240.714 25.5074 240.714 26.8211C240.714 28.1866 240.862 29.1632 241.157 29.7509C241.453 30.3213 241.931 30.6065 242.591 30.6065C243.252 30.6065 243.73 30.3126 244.026 29.725C244.321 29.1373 244.469 28.1866 244.469 26.8729C244.469 25.5074 244.321 24.5394 244.026 23.969C243.73 23.3813 243.252 23.0875 242.591 23.0875Z" fill="#32435C"/>
<path d="M258.628 17.6427C258.124 17.6427 257.759 17.7723 257.533 18.0316C257.307 18.2909 257.194 18.7403 257.194 19.3799V19.9243H260.427L259.854 23.3986H257.194V33.7696H252.031V23.3986H250.153V19.9243H252.031V19.1206C252.031 17.6168 252.535 16.3809 253.543 15.4129C254.551 14.445 256.012 13.961 257.924 13.961C258.654 13.961 259.393 14.0561 260.141 14.2462C260.888 14.4191 261.514 14.6438 262.018 14.9203L260.662 18.1613C260.019 17.8156 259.341 17.6427 258.628 17.6427Z" fill="#32435C"/>
<path d="M270.679 33.0955C270.14 33.4758 269.48 33.7696 268.697 33.9771C267.932 34.1845 267.202 34.2882 266.507 34.2882C264.786 34.2709 263.508 33.7956 262.674 32.8622C261.857 31.9115 261.448 30.5114 261.448 28.6619V23.3986H259.779V19.9243H261.448V17.0205L266.611 16.4241V19.9243H269.74L269.219 23.3986H266.611V28.6101C266.611 29.215 266.707 29.6472 266.898 29.9064C267.089 30.1484 267.359 30.2694 267.706 30.2694C268.141 30.2694 268.576 30.1484 269.01 29.9064L270.679 33.0955Z" fill="#32435C"/>
<path d="M284 26.6655C284 27.0976 283.965 27.6421 283.896 28.2989H275.447C275.586 29.2323 275.873 29.8632 276.307 30.1916C276.759 30.5028 277.403 30.6583 278.237 30.6583C278.724 30.6583 279.219 30.5633 279.723 30.3731C280.228 30.1657 280.784 29.8546 281.392 29.4397L283.478 32.2399C281.792 33.6054 279.88 34.2882 277.742 34.2882C275.273 34.2882 273.404 33.6141 272.135 32.2659C270.866 30.9003 270.232 29.1027 270.232 26.8729C270.232 25.4901 270.492 24.237 271.014 23.1134C271.553 21.9726 272.344 21.0738 273.387 20.417C274.43 19.7428 275.69 19.4058 277.168 19.4058C278.541 19.4058 279.741 19.691 280.766 20.2614C281.792 20.8318 282.583 21.6615 283.139 22.7504C283.713 23.8394 284 25.1444 284 26.6655ZM278.915 25.2136C278.898 24.4012 278.767 23.7703 278.524 23.3208C278.298 22.8714 277.881 22.6467 277.272 22.6467C276.699 22.6467 276.264 22.8455 275.968 23.2431C275.69 23.6406 275.508 24.3579 275.421 25.395H278.915V25.2136Z" fill="#32435C"/>
<path d="M53.1301 66.336C69.2174 66.336 82.2587 54.6926 82.2587 40.3298C82.2587 25.9671 69.2174 14.3237 53.1301 14.3237C37.0428 14.3237 24.0015 25.9671 24.0015 40.3298C24.0015 54.6926 37.0428 66.336 53.1301 66.336Z" fill="#DF51A3"/>
<g opacity="0.18">
<g opacity="0.1">
<path opacity="0.1" d="M41.2057 27.4764C41.0721 27.5761 40.9719 27.6757 40.8716 27.7754C40.7714 27.875 40.6378 28.0079 40.5376 28.1739C40.738 28.1075 40.905 28.0743 41.1055 28.0411C41.3393 28.0079 41.4395 27.7089 41.2725 27.5429L41.2057 27.4764Z" fill="#677487"/>
</g>
</g>
<path d="M53.1322 66.3365C69.2195 66.3365 82.2608 54.6931 82.2608 40.3304C82.2608 25.9676 69.2195 14.3242 53.1322 14.3242C37.0449 14.3242 24.0035 25.9676 24.0035 40.3304C24.0035 54.6931 37.0449 66.3365 53.1322 66.3365Z" fill="#435E8A"/>
<path d="M52.2961 66.6024C68.3834 66.6024 81.4247 54.959 81.4247 40.5963C81.4247 26.2335 68.3834 14.5901 52.2961 14.5901C36.2088 14.5901 23.1675 26.2335 23.1675 40.5963C23.1675 54.959 36.2088 66.6024 52.2961 66.6024Z" fill="white"/>
<path d="M51.9625 67C67.5517 67 80.1892 55.6987 80.1892 41.7578C80.1892 27.8169 67.5517 16.5156 51.9625 16.5156C36.3734 16.5156 23.7358 27.8169 23.7358 41.7578C23.7358 55.6987 36.3734 67 51.9625 67Z" fill="#53688B"/>
<path d="M63.6878 29.7349C59.98 29.7349 56.7063 31.0966 52.7312 31.0966C49.0233 31.0966 46.0169 29.7349 41.7746 29.7349C35.7952 29.7349 30.9515 34.8165 30.9515 40.7949C30.9515 44.1495 32.5549 47.0391 34.8933 49.0983C36.6971 50.6925 39.7369 52.6521 43.8456 52.6521C49.0233 52.6521 49.0567 50.1943 52.8982 50.1943C56.4725 50.1943 56.5059 52.6521 61.6836 52.6521C65.7923 52.6521 68.8321 50.6925 70.6359 49.0983C72.9743 47.0391 74.5777 44.1495 74.5777 40.7949C74.5109 34.8165 69.6672 29.7349 63.6878 29.7349Z" fill="#F0E7E1"/>
<g opacity="0.62">
<path opacity="0.62" d="M62.7514 51.4896C57.5738 51.4896 57.5404 49.0318 53.9661 49.0318C50.1246 49.0318 50.0912 51.4896 44.9135 51.4896C40.8048 51.4896 37.765 49.53 35.9611 47.9358C33.6228 45.8765 32.0194 42.987 32.0194 39.6324C32.0194 36.8757 33.055 34.2851 34.792 32.3255C32.4203 34.3847 30.8837 37.4403 30.8837 40.7617C30.8837 44.1162 32.4871 47.0058 34.8254 49.065C36.6292 50.6593 39.669 52.6189 43.7778 52.6189C48.9554 52.6189 48.9888 50.1611 52.8303 50.1611C56.4046 50.1611 56.438 52.6189 61.6157 52.6189C65.7244 52.6189 68.7642 50.6593 70.5681 49.065C70.9689 48.7329 71.303 48.3676 71.6704 47.969C69.8666 49.5632 66.8268 51.4896 62.7514 51.4896Z" fill="white"/>
</g>
<g opacity="0.16">
<path opacity="0.16" d="M40.9064 31.4287C45.1488 31.4287 48.1552 32.7905 51.8631 32.7905C55.8382 32.7905 59.1118 31.4287 62.8197 31.4287C68.7991 31.4287 73.6427 36.5104 73.6427 42.4888C73.6427 44.3156 73.1417 46.0427 72.34 47.5373C73.8432 45.6773 74.7785 43.3524 74.7785 40.7949C74.7785 34.8497 69.9348 29.7349 63.9555 29.7349C60.2476 29.7349 56.9739 31.0966 52.9988 31.0966C49.2909 31.0966 46.2845 29.7349 42.0422 29.7349C37.9669 29.7349 34.426 32.093 32.5887 35.4808C34.5596 33.023 37.566 31.4287 40.9064 31.4287Z" fill="#677487"/>
</g>
<path d="M53.1301 66.336C69.2174 66.336 82.2587 54.6926 82.2587 40.3298C82.2587 25.9671 69.2174 14.3237 53.1301 14.3237C37.0428 14.3237 24.0015 25.9671 24.0015 40.3298C24.0015 54.6926 37.0428 66.336 53.1301 66.336Z" stroke="#26344B" stroke-width="2.19013" stroke-miterlimit="10"/>
<path d="M64.0873 29.3028C60.2458 29.3028 56.8385 30.6978 52.7298 30.6978C48.8883 30.6978 45.7817 29.3028 41.3723 29.3028C35.1591 29.3028 30.1484 34.5838 30.1484 40.7615C30.1484 44.2157 31.8187 47.2381 34.2238 49.397C36.0944 51.0576 39.2344 53.0836 43.5102 53.0836C48.8549 53.0836 48.9217 50.5262 52.8968 50.5262C56.6047 50.5262 56.6381 53.0836 61.9828 53.0836C66.2586 53.0836 69.3986 51.0576 71.2692 49.397C73.6743 47.2713 75.3446 44.2489 75.3446 40.7615C75.3112 34.5838 70.3005 29.3028 64.0873 29.3028Z" stroke="#26344B" stroke-width="2.19013" stroke-miterlimit="10"/>
<path d="M36.4623 42.8536C37.1638 40.2962 39.5355 38.403 42.308 38.403C44.78 38.403 46.8844 39.8644 47.8532 41.9569" stroke="#26344B" stroke-width="2.12695" stroke-miterlimit="10" stroke-linecap="round"/>
<path d="M68.3637 42.8536C67.6622 40.2962 65.2905 38.403 62.5179 38.403C60.046 38.403 57.9415 39.8644 56.9728 41.9569" stroke="#26344B" stroke-width="2.12695" stroke-miterlimit="10" stroke-linecap="round"/>
<path d="M26.0395 21.4979C26.4403 21.5643 26.8078 21.2322 26.7744 20.8336C26.6074 17.1469 25.8057 13.5267 24.4027 10.1057C23.4674 7.84718 22.2648 5.6551 20.4944 3.89479C18.7239 2.13448 16.419 0.905578 13.9471 0.772724C11.4752 0.639871 8.86964 1.76913 7.60028 3.86157C6.29751 5.98723 6.49793 8.77716 7.63368 10.9692C8.76943 13.1613 10.7069 14.8884 12.778 16.2834C16.7531 19.0401 21.3963 20.7672 26.0395 21.4979Z" fill="white"/>
<path d="M23.935 20.8005C24.3025 20.867 24.6031 20.6013 24.5697 20.2359C24.4027 17.0474 23.7012 13.8921 22.4318 10.9362C21.5967 8.97656 20.5278 7.05018 18.9912 5.55558C17.4546 4.06097 15.4169 2.96493 13.2456 2.83208C11.0743 2.69922 8.83624 3.66241 7.70049 5.48915C6.56474 7.31589 6.76517 9.74047 7.7673 11.6668C8.76943 13.5932 10.4731 15.0878 12.2769 16.3167C15.8178 18.6417 19.8931 20.1695 23.935 20.8005Z" fill="#46B7B2"/>
<path d="M25.9326 22.0817L25.932 22.0816C21.0819 21.3549 16.4312 19.5383 12.4122 16.7972L12.4116 16.7967C9.82207 15.0473 8.07771 13.2419 7.06069 11.2524C5.74779 8.64123 5.75611 5.68713 7.05373 3.5583L7.05394 3.55794C8.38357 1.36532 11.0873 0.0613196 13.9373 0.191402C16.4245 0.321726 18.8887 1.49402 20.8993 3.49309C22.4813 5.06609 23.8054 7.13606 24.9343 9.87603C26.3631 13.3781 27.1934 17.0442 27.3595 20.8088L27.3594 20.8088L27.3598 20.8148C27.3885 21.185 27.2478 21.5277 26.9564 21.7904C26.657 22.027 26.3078 22.1391 25.9326 22.0817ZM23.836 10.3362L23.8353 10.3345C22.7603 7.76272 21.5461 5.8136 20.0543 4.33028C18.462 2.74709 16.59 1.728 14.6395 1.45581L14.634 1.45502C14.4054 1.42255 14.1622 1.38801 13.9168 1.38763C11.5909 1.28699 9.25383 2.40714 8.14568 4.19759L8.14567 4.19759L8.14487 4.19891C7.03622 6.0246 7.08072 8.51767 8.20462 10.7526C9.12573 12.5843 10.7564 14.233 13.1414 15.8696L13.1426 15.8704C16.9065 18.4098 21.341 20.1465 25.943 20.8813L26.1646 20.9167L26.1541 20.6925C25.986 17.1166 25.1794 13.6422 23.836 10.3362Z" fill="#27364D" stroke="#26344B" stroke-width="0.365022"/>
<path d="M21.2306 25.0525C21.6649 24.6207 21.4978 23.89 20.8966 23.7239C18.4246 23.0265 15.8525 22.1961 13.3472 21.7311C8.53693 20.8344 3.25904 20.8676 1.4218 24.5211C-0.181612 27.6763 1.65563 30.9977 4.12755 32.2598C7.5348 33.9869 11.3429 33.6215 14.2825 31.7616C17.1553 30.0013 18.6251 27.5103 21.2306 25.0525Z" fill="white"/>
<path d="M19.6603 26.6468C20.0612 26.2815 19.8942 25.6172 19.3597 25.4844C17.1216 24.8865 14.7499 24.1558 12.445 23.7573C8.069 22.9934 3.25877 23.0266 1.55514 26.2483C0.0853487 29.005 1.75557 31.9278 4.02707 33.0238C7.13367 34.5516 10.6077 34.1863 13.3135 32.592C15.919 30.9978 17.2552 28.8389 19.6603 26.6468Z" fill="#46B7B2"/>
<path d="M14.6205 32.2704L14.6196 32.271C12.3178 33.7096 9.72216 34.2318 7.19262 33.8725C6.04449 33.7094 4.92811 33.3506 3.84291 32.7947L3.84245 32.7945C1.03727 31.3675 -0.898493 27.7148 0.849246 24.2714C1.67243 22.6506 3.15121 21.5658 5.2614 21.0362C7.37677 20.5053 10.1205 20.5347 13.4474 21.1466L13.4482 21.1468C15.3602 21.4896 17.2734 22.0385 19.1411 22.5743C19.2524 22.6062 19.3635 22.6381 19.4744 22.6698C19.7435 22.7534 20.0121 22.8286 20.2779 22.9029L20.2791 22.9032C20.5468 22.9781 20.8115 23.0521 21.0758 23.1342L21.0757 23.1345L21.086 23.1371C21.5535 23.2533 21.9367 23.6325 22.0547 24.1312C22.1733 24.6325 22.0262 25.1312 21.6717 25.4853C20.731 26.3541 19.9584 27.2225 19.1921 28.0838L19.1898 28.0863L19.189 28.0873C17.8189 29.6489 16.532 31.0908 14.6205 32.2704ZM20.8283 24.3623L20.7955 24.3276L20.7499 24.3135C20.2151 24.1473 19.6836 23.9822 19.1193 23.7841L19.1194 23.7839L19.11 23.7811C17.1727 23.2165 15.1607 22.6496 13.2136 22.2824L13.2131 22.2823C11.1511 21.8989 8.78247 21.6543 6.70847 21.9321C4.63674 22.2096 2.81822 23.0151 1.92675 24.7705L1.92643 24.7711C0.816471 26.9783 1.44158 30.2472 4.3785 31.7249C7.41114 33.2831 10.9861 33.0777 13.9434 31.2527C15.687 30.1858 16.9314 28.7897 18.216 27.3487L18.2586 27.3009C18.406 27.1421 18.5531 26.9826 18.701 26.8221C19.3229 26.1475 19.9592 25.4573 20.6899 24.7471L21.0976 25.1779L21.2302 25.0524L21.3627 24.9269L20.8283 24.3623Z" fill="#27364D" stroke="#26344B" stroke-width="0.365022"/>
</svg>
