<svg width="64" height="65" viewBox="0 0 64 65" fill="none" xmlns="http://www.w3.org/2000/svg">
<path d="M27.4401 10.7934L4.85339 48.5001C4.3877 49.3065 4.1413 50.2209 4.13869 51.1521C4.13609 52.0834 4.37736 52.9991 4.83853 53.8081C5.29969 54.6172 5.96466 55.2914 6.76728 55.7637C7.5699 56.2359 8.48219 56.4898 9.41339 56.5001H54.5867C55.5179 56.4898 56.4302 56.2359 57.2328 55.7637C58.0355 55.2914 58.7004 54.6172 59.1616 53.8081C59.6227 52.9991 59.864 52.0834 59.8614 51.1521C59.8588 50.2209 59.6124 49.3065 59.1467 48.5001L36.5601 10.7934C36.0847 10.0097 35.4153 9.36171 34.6166 8.91201C33.8178 8.46232 32.9167 8.22607 32.0001 8.22607C31.0834 8.22607 30.1823 8.46232 29.3835 8.91201C28.5848 9.36171 27.9154 10.0097 27.4401 10.7934V10.7934Z" stroke="#A40162" stroke-width="3.09" stroke-linecap="round" stroke-linejoin="round"/>
<path d="M32 24.5V35.1667" stroke="#A40162" stroke-width="3.09" stroke-linecap="round" stroke-linejoin="round"/>
<path d="M32 45.8335H32.0267" stroke="#A40162" stroke-width="3.09" stroke-linecap="round" stroke-linejoin="round"/>
</svg>
