<svg width="225" height="154" viewBox="0 0 225 154" fill="none" xmlns="http://www.w3.org/2000/svg">
<circle opacity="0.5" cx="39.875" cy="7.5" r="7.5" fill="#D13693"/>
<circle opacity="0.1" cx="11.375" cy="143" r="11" fill="#8054A4"/>
<circle opacity="0.2" cx="213.625" cy="86" r="11" fill="#CFE4F2"/>
<circle opacity="0.4" cx="166" cy="28.5" r="12.5" fill="#8054A4"/>
<path d="M94.3889 118.386C91.9599 118.386 89.9456 116.356 89.9456 113.908V38.9711C89.9456 36.523 91.9599 34.4928 94.3889 34.4928H166.076C168.505 34.4928 170.519 36.523 170.519 38.9711V113.908C170.519 116.356 168.505 118.386 166.076 118.386H94.3889Z" fill="#E05DAB"/>
<path d="M166.431 36.0454H91.6043C90.1825 36.0454 88.9976 37.2396 88.9976 38.6727V39.0309H163.528C164.891 39.0309 166.016 40.1654 166.016 41.5388V119.222H166.372C167.794 119.222 168.978 118.028 168.978 116.595V38.6727C168.978 37.2396 167.853 36.0454 166.431 36.0454Z" fill="white"/>
<path d="M166.076 35.9855C167.734 35.9855 169.038 37.2992 169.038 38.971V113.908C169.038 115.58 167.734 116.893 166.076 116.893H94.389C92.7301 116.893 91.4267 115.58 91.4267 113.908V38.971C91.4267 37.2992 92.7301 35.9855 94.389 35.9855H166.076ZM166.076 33H94.389C91.1305 33 88.4645 35.687 88.4645 38.971V113.908C88.4645 117.192 91.1305 119.879 94.389 119.879H166.076C169.334 119.879 172 117.192 172 113.908V38.971C172 35.687 169.334 33 166.076 33Z" fill="#32435C"/>
<path d="M76.7338 130.507C91.7851 130.507 103.987 118.344 103.987 103.339C103.987 88.3344 91.7851 76.1708 76.7338 76.1708C61.6826 76.1708 49.4811 88.3344 49.4811 103.339C49.4811 118.344 61.6826 130.507 76.7338 130.507Z" fill="#CFE4F2"/>
<path d="M76.7338 77.6036C68.9727 77.6036 62.041 81.0668 57.3014 86.4408C61.8633 82.4402 67.847 79.9921 74.364 79.9921C88.5828 79.9921 100.136 91.5162 100.136 105.668C100.136 112.116 97.7658 117.968 93.7964 122.506C99.1284 117.789 102.505 110.922 102.505 103.279C102.505 89.1278 90.9526 77.6036 76.7338 77.6036Z" fill="white"/>
<path d="M76.7339 77.6635C90.9527 77.6635 102.505 89.1876 102.505 103.339C102.505 117.49 90.9527 129.015 76.7339 129.015C62.5151 129.015 50.9623 117.49 50.9623 103.339C50.9623 89.1876 62.5151 77.6635 76.7339 77.6635ZM76.7339 74.678C60.8562 74.678 48 87.456 48 103.339C48 119.222 60.8562 132 76.7339 132C92.6116 132 105.468 119.162 105.468 103.339C105.468 87.5157 92.6116 74.678 76.7339 74.678Z" fill="#32435C"/>
<path d="M117.198 100.055C115.066 100.055 112.755 98.3234 112.755 95.5767V57.362C112.755 54.6153 115.066 52.8837 117.198 52.8837C118.028 52.8837 118.798 53.1225 119.509 53.5405L150.316 72.6478C151.62 73.4838 152.449 74.9168 152.449 76.4693C152.449 78.0218 151.679 79.4548 150.316 80.2908L119.509 99.3981C118.798 99.8161 118.028 100.055 117.198 100.055Z" fill="#8F64B2"/>
<path d="M150.316 73.8421L119.509 54.7347C118.798 54.3167 118.028 54.0779 117.198 54.0779C115.54 54.0779 113.821 55.093 113.051 56.8246C113.584 56.5857 114.236 56.4663 114.829 56.4663C115.658 56.4663 116.428 56.7051 117.139 57.1231L147.947 76.2305C149.25 77.0664 150.079 78.4995 150.079 80.0519C150.079 80.7088 149.961 81.3059 149.665 81.903L150.316 81.485C151.62 80.649 152.449 79.216 152.449 77.6635C152.449 76.0513 151.62 74.6183 150.316 73.8421Z" fill="white"/>
<path d="M117.198 54.3764C117.732 54.3764 118.265 54.5555 118.739 54.8541L149.546 73.9614C150.79 74.7377 150.968 75.9916 150.968 76.529C150.968 77.0067 150.85 78.2606 149.546 79.0965L118.739 98.2039C118.265 98.5024 117.732 98.6816 117.198 98.6816C115.777 98.6816 114.236 97.5471 114.236 95.6961V57.4813C114.236 56.4066 114.71 55.7497 115.125 55.3318C115.658 54.6749 116.428 54.3764 117.198 54.3764ZM117.198 51.3909C114.118 51.3909 111.274 53.8987 111.274 57.3619V95.5766C111.274 99.0996 114.118 101.548 117.198 101.548C118.206 101.548 119.272 101.249 120.279 100.652L151.087 81.5447C154.819 79.216 154.819 73.7226 151.087 71.3939L120.279 52.2865C119.272 51.6297 118.206 51.3909 117.198 51.3909Z" fill="#32435C"/>
</svg>
