<svg width="224" height="154" viewBox="0 0 224 154" fill="none" xmlns="http://www.w3.org/2000/svg">
<circle opacity="0.5" cx="51.5" cy="114.5" r="8.5" fill="#D13693"/>
<circle opacity="0.1" cx="11" cy="143" r="11" fill="#8054A4"/>
<circle opacity="0.2" cx="213" cy="133" r="11" fill="#CFE4F2"/>
<circle opacity="0.4" cx="194.5" cy="12.5" r="12.5" fill="#8054A4"/>
<path d="M129.678 68.0503C128.309 68.0503 127.058 67.4515 126.165 66.3137C125.332 65.2358 125.034 63.8585 125.332 62.4812L133.787 26.9703C134.322 24.575 136.466 23.4971 138.133 23.4971C139.324 23.4971 140.396 23.9761 141.289 24.8145L168.202 51.8818C169.333 53.0196 169.809 54.6963 169.333 56.2533C168.857 57.8702 167.666 59.0079 166.058 59.4271L130.69 67.9306C130.393 67.9904 130.035 68.0503 129.678 68.0503Z" fill="#8F64B2"/>
<path d="M168.202 51.8818L141.289 24.8145C140.455 23.9761 139.324 23.4971 138.133 23.4971C136.406 23.4971 134.322 24.575 133.786 26.9703L133.429 28.5273C134.025 27.7488 134.977 27.3895 135.811 27.3895C136.347 27.3895 137.18 27.5691 137.895 28.2877L164.748 55.355C165.88 56.4928 165.641 57.7504 165.522 58.2893C165.403 58.6486 165.165 59.3073 164.51 59.8463L166.058 59.487C167.666 59.1277 168.857 57.93 169.333 56.3132C169.809 54.6963 169.393 53.0795 168.202 51.8818Z" fill="white"/>
<path d="M138.133 24.9942C138.669 24.9942 139.502 25.1738 140.217 25.8924L167.13 52.9597C168.261 54.0975 168.023 55.3551 167.904 55.894C167.785 56.3731 167.249 57.6306 165.701 57.9899L130.333 66.4934C130.095 66.5533 129.857 66.5533 129.618 66.5533C128.725 66.5533 127.892 66.1341 127.296 65.4155C126.939 64.9963 126.463 64.098 126.76 62.9004L135.215 27.3296C135.573 25.7128 136.942 24.9942 138.133 24.9942ZM138.133 22C135.513 22 133.012 23.6767 132.298 26.611L123.843 62.1818C122.95 66.0143 125.927 69.5474 129.618 69.5474C130.095 69.5474 130.571 69.4875 131.047 69.3678L166.415 60.9242C170.941 59.8463 172.548 54.1574 169.273 50.8638L142.301 23.7366C141.11 22.539 139.622 22 138.133 22Z" fill="#32435C"/>
<path fill-rule="evenodd" clip-rule="evenodd" d="M89.5947 54.337C89.5947 53.5086 90.2663 52.837 91.0947 52.837H101.991C105.805 52.837 108.85 55.912 108.85 59.7265V107.154C108.85 109.328 110.568 111.044 112.708 111.044H121.342C122.17 111.044 122.842 111.715 122.842 112.544C122.842 113.372 122.17 114.044 121.342 114.044H112.708C108.895 114.044 105.85 110.969 105.85 107.154V59.7265C105.85 57.5527 104.132 55.837 101.991 55.837H91.0947C90.2663 55.837 89.5947 55.1655 89.5947 54.337Z" fill="#32435C"/>
<path d="M59.716 72.9608C57.3939 72.9608 55.4885 71.0445 55.4885 68.7091V38.5278C55.4885 36.1924 57.3939 34.2761 59.716 34.2761H88.4748C90.7969 34.2761 92.7023 36.1924 92.7023 38.5278V68.7091C92.7023 71.0445 90.7969 72.9608 88.4748 72.9608H59.716Z" fill="#E05DAB"/>
<path d="M88.4152 34.3362H59.716C57.3939 34.3362 55.4885 36.2525 55.4885 38.5879V39.1867C55.8458 39.0071 56.2626 38.8873 56.7389 38.8873H85.4977C86.9862 38.8873 88.2366 40.085 88.2366 41.642V56.7326V71.8232C88.2366 72.2424 88.1175 72.6616 87.9389 73.0808H88.5343C90.8565 73.0808 92.7618 71.1645 92.7618 68.829V38.528C92.6427 36.1926 90.7374 34.3362 88.4152 34.3362Z" fill="white"/>
<path d="M88.4153 35.8333C89.9038 35.8333 91.1542 37.031 91.1542 38.5879V53.6785V68.7692C91.1542 70.2662 89.9634 71.5238 88.4153 71.5238H59.716C58.2275 71.5238 56.9771 70.3261 56.9771 68.7692V38.528C56.9771 37.031 58.1679 35.7734 59.716 35.7734H88.4153V35.8333ZM88.4153 32.8391H59.716C56.5603 32.8391 54 35.4141 54 38.5879V68.7692C54 71.943 56.5603 74.518 59.716 74.518H88.4748C91.6305 74.518 94.1908 71.943 94.1908 68.7692V53.6785V38.528C94.1313 35.4141 91.571 32.8391 88.4153 32.8391Z" fill="#32435C"/>
<path d="M142.658 133.563C154.694 133.563 164.45 123.857 164.45 111.885C164.45 99.9125 154.694 90.207 142.658 90.207C130.622 90.207 120.866 99.9125 120.866 111.885C120.866 123.857 130.622 133.563 142.658 133.563Z" fill="#CFE4F2"/>
<path d="M142.658 90.207C135.692 90.207 129.499 93.5006 125.51 98.5308C129.261 95.5367 133.965 93.8 139.086 93.8C151.113 93.8 160.878 103.501 160.878 115.478C160.878 120.508 159.151 125.119 156.234 128.832C161.235 124.88 164.45 118.771 164.45 111.885C164.45 99.9081 154.626 90.207 142.658 90.207Z" fill="white"/>
<path d="M142.658 91.7041C153.852 91.7041 162.962 100.747 162.962 111.885C162.962 123.023 153.852 132.066 142.658 132.066C131.464 132.066 122.354 123.023 122.354 111.885C122.354 100.747 131.464 91.7041 142.658 91.7041ZM142.658 88.71C129.797 88.71 119.377 99.0698 119.377 111.885C119.377 124.7 129.797 135.06 142.658 135.06C155.519 135.06 165.939 124.7 165.939 111.885C165.939 99.0698 155.519 88.71 142.658 88.71Z" fill="#32435C"/>
</svg>
