<svg width="64" height="65" viewBox="0 0 64 65" fill="none" xmlns="http://www.w3.org/2000/svg">
<path d="M5.33301 8.5H21.333C24.162 8.5 26.8751 9.62381 28.8755 11.6242C30.8759 13.6246 31.9997 16.3377 31.9997 19.1667V56.5C31.9997 54.3783 31.1568 52.3434 29.6565 50.8431C28.1562 49.3429 26.1214 48.5 23.9997 48.5H5.33301V8.5Z" stroke="#6A418C" stroke-width="3.09" stroke-linecap="round" stroke-linejoin="round"/>
<path d="M58.6667 8.5H42.6667C39.8377 8.5 37.1246 9.62381 35.1242 11.6242C33.1238 13.6246 32 16.3377 32 19.1667V56.5C32 54.3783 32.8429 52.3434 34.3431 50.8431C35.8434 49.3429 37.8783 48.5 40 48.5H58.6667V8.5Z" stroke="#6A418C" stroke-width="3.09" stroke-linecap="round" stroke-linejoin="round"/>
</svg>
