<svg width="24" height="20" viewBox="0 0 24 20" fill="none" xmlns="http://www.w3.org/2000/svg">
<path d="M2.4 0.5C1.6008 0.5 0.896119 0.888405 0.461719 1.48572C0.168919 1.88709 0.298275 2.45604 0.721875 2.71729L11.2594 9.21606C11.713 9.49631 12.287 9.49631 12.7406 9.21606L23.2336 2.66162C23.674 2.38612 23.7838 1.78736 23.4586 1.38599C23.0206 0.846861 22.3524 0.5 21.6 0.5H2.4ZM23.4188 5.35205C23.3184 5.35315 23.2165 5.38051 23.1211 5.44019L12.7406 11.9181C12.287 12.1972 11.713 12.196 11.2594 11.9158L0.876563 5.5144C0.494962 5.27928 0 5.55151 0 5.99683V17.125C0 18.4372 1.074 19.5 2.4 19.5H21.6C22.926 19.5 24 18.4372 24 17.125V5.92029C24 5.58541 23.7198 5.34877 23.4188 5.35205Z" fill="#D8E2F1"/>
</svg>
