<svg width="26" height="22" viewBox="0 0 26 22" fill="none" xmlns="http://www.w3.org/2000/svg">
<path d="M8.362 21.1571C17.796 21.1571 22.956 13.3411 22.956 6.56306C22.956 6.34106 22.956 6.12006 22.941 5.90006C23.9448 5.17397 24.8114 4.27494 25.5 3.24506C24.5639 3.65986 23.5708 3.93189 22.554 4.05206C23.6247 3.41104 24.4261 2.40283 24.809 1.21506C23.8022 1.81252 22.7006 2.23357 21.552 2.46006C20.7787 1.63775 19.7559 1.09323 18.6419 0.910775C17.5279 0.72832 16.3848 0.918098 15.3895 1.45074C14.3943 1.98339 13.6023 2.8292 13.1362 3.8573C12.6701 4.8854 12.5558 6.03846 12.811 7.13806C10.7718 7.03583 8.7768 6.50589 6.95564 5.58265C5.13448 4.65941 3.52784 3.36351 2.24 1.77906C1.58409 2.90822 1.3832 4.24492 1.67823 5.517C1.97326 6.78908 2.74202 7.90089 3.828 8.62606C3.01174 8.60187 2.21328 8.38167 1.5 7.98406C1.5 8.00506 1.5 8.02706 1.5 8.04906C1.50032 9.23328 1.91026 10.3809 2.66028 11.2974C3.4103 12.2138 4.45423 12.8426 5.615 13.0771C4.85987 13.283 4.06758 13.3131 3.299 13.1651C3.62676 14.1842 4.26486 15.0755 5.12407 15.7141C5.98328 16.3528 7.02061 16.707 8.091 16.7271C6.27474 18.1545 4.03106 18.9294 1.721 18.9271C1.3129 18.9263 0.905204 18.9016 0.5 18.8531C2.84564 20.3583 5.57491 21.1568 8.362 21.1531" fill="#D8E2F1"/>
</svg>
