<svg width="224" height="154" viewBox="0 0 224 154" fill="none" xmlns="http://www.w3.org/2000/svg">
<circle opacity="0.1" cx="11" cy="130" r="11" fill="#8054A4"/>
<circle opacity="0.2" cx="213" cy="143" r="11" fill="#CFE4F2"/>
<circle opacity="0.4" cx="183.5" cy="12.5" r="12.5" fill="#8054A4"/>
<circle opacity="0.5" cx="32.5" cy="63.5" r="7.5" fill="#D13693"/>
<path d="M114.336 123.724C139.297 123.724 159.531 103.059 159.531 77.5682C159.531 52.077 139.297 31.4124 114.336 31.4124C89.3752 31.4124 69.1405 52.077 69.1405 77.5682C69.1405 103.059 89.3752 123.724 114.336 123.724Z" fill="#CFE4F2"/>
<path d="M114.901 32.316C102.302 32.316 90.947 37.796 82.9248 46.4961C90.721 39.4343 100.946 35.1408 112.076 35.1408C136.199 35.1408 155.859 55.1962 155.859 79.8842C155.859 91.6915 151.339 102.425 144.052 110.391C153.034 102.199 158.684 90.2792 158.684 77.0595C158.684 52.3715 139.08 32.316 114.901 32.316Z" fill="white"/>
<path d="M114.336 32.8247C138.459 32.8247 158.119 52.8802 158.119 77.5682C158.119 102.256 138.459 122.312 114.336 122.312C90.2126 122.312 70.5526 102.256 70.5526 77.5682C70.5526 52.8802 90.2126 32.8247 114.336 32.8247ZM114.336 30C88.6308 30 67.7844 51.2983 67.7844 77.5682C67.7844 103.838 88.6308 125.136 114.392 125.136C140.154 125.136 161 103.838 161 77.5682C161 51.2983 140.097 30 114.336 30Z" fill="#32435C"/>
<path d="M61.3441 53.9536C60.1578 53.1627 59.4233 51.8633 59.4233 50.3944C59.4233 48.9256 60.1013 47.6262 61.2877 46.8353L88.3484 32.3728C88.4049 32.3728 88.4049 32.3163 88.4614 32.3163C89.0828 31.9208 89.7608 31.6948 90.4952 31.6948C92.416 31.6948 94.5063 33.2767 94.5063 35.8754V63.1056L87.388 70.4499L61.3441 53.9536Z" fill="#8F64B2"/>
<path d="M90.5001 33C81.6214 33 68.6577 43.8988 61.0001 48C60.2091 48.5084 60.9321 50.773 60.6497 51.6204L87.1455 37.3838C87.202 37.3274 87.2585 37.3274 87.315 37.2709C87.7104 36.9884 88.1624 36.8754 88.6143 36.8754C89.8572 36.8754 90.2131 36.9488 90.2131 38.6436V67.5122L86.3714 71.4668L87.3319 72.0317L94.4501 64.6875V37.5702C94.5066 34.9715 92.4209 33 90.5001 33Z" fill="white"/>
<path d="M90.4955 33.1072C91.7383 33.1072 93.0942 34.1806 93.0942 35.8754V62.4842L87.1623 68.6421L62.0789 52.8237C60.949 52.0328 60.836 50.8464 60.836 50.3944C60.836 49.9425 60.949 48.8126 62.0224 48.0782L89.0266 33.6156C89.0831 33.5591 89.1396 33.5591 89.1961 33.5026C89.5916 33.2202 90.0435 33.1072 90.4955 33.1072ZM90.4955 30.2825C89.5351 30.2825 88.5747 30.5649 87.6708 31.1299L60.61 45.6489C57.1639 47.8522 57.1639 52.9932 60.61 55.1964L87.6143 72.2577L95.9189 63.6706V35.8754C95.9189 32.5987 93.3202 30.2825 90.4955 30.2825Z" fill="#32435C"/>
<path d="M115.07 107.397C113.15 107.397 111.059 105.816 111.059 103.217V75.9866L118.178 68.6423L144.221 85.0822C145.408 85.8731 146.142 87.1725 146.142 88.6413C146.142 90.1102 145.464 91.4095 144.278 92.2004L117.217 106.719C117.161 106.719 117.161 106.776 117.104 106.776C116.483 107.171 115.805 107.397 115.07 107.397Z" fill="#E05DAB"/>
<path d="M144.786 85.1384L118.743 68.6986L115.579 71.9753L141.566 88.4151C142.753 89.206 143.487 90.5054 143.487 91.9742C143.487 92.3697 143.431 92.7087 143.318 93.0476L144.843 92.2567C146.029 91.4658 146.707 90.1664 146.707 88.6976C146.707 87.2287 145.973 85.8729 144.786 85.1384Z" fill="white"/>
<path d="M118.404 70.45L143.487 86.2684C144.617 87.0028 144.786 88.1892 144.786 88.6411C144.786 89.0931 144.673 90.223 143.6 90.9574L116.596 105.42C116.539 105.476 116.483 105.476 116.426 105.533C116.031 105.815 115.579 105.928 115.127 105.928C113.884 105.928 112.528 104.855 112.528 103.16V76.5514L118.404 70.45ZM117.952 66.8344L109.647 75.4215V103.217C109.647 106.493 112.246 108.81 115.07 108.81C116.031 108.81 116.991 108.527 117.895 107.962L144.956 93.4432C148.402 91.2399 148.402 86.0989 144.956 83.8956L117.952 66.8344Z" fill="#32435C"/>
<path d="M81 88L121 47" stroke="white" stroke-width="4" stroke-miterlimit="10" stroke-linecap="round"/>
<path d="M81 93L125 47" stroke="#32435C" stroke-width="4" stroke-miterlimit="10" stroke-linecap="round" stroke-linejoin="round"/>
</svg>
