<svg width="1680" height="218" viewBox="0 0 1680 218" fill="none" xmlns="http://www.w3.org/2000/svg"><path d="M754.5 103C961.916 195.057 1268.35 235.385 1678.5 52.0001V217.5L3.76617e-06 213L0 19C262 -24.5 547.083 10.9434 754.5 103Z" fill="#E05DAB"/><path d="M756 113.5C970.5 209 1252.5 229.499 1680 22L1680 218H0L1.32798e-07 53.4999C260.549 2.06553 541.5 17.9997 756 113.5Z" fill="#8F64B2"/><path d="M746 119.5C966 209.5 1258.7 242.919 1680 25V218L1.21204e-05 214.418L0 84C259.113 25.7629 526 29.4995 746 119.5Z" fill="#CFE4F2"/><path d="M758 164.5C972 240 1285.5 244 1680 29.0001V218H0V142C257.5 77.0001 544 89.0007 758 164.5Z" fill="#FBF7FE"/></svg>
