<svg width="1680" height="2036" viewBox="0 0 1680 2036" fill="none" xmlns="http://www.w3.org/2000/svg"><path opacity="0.05" d="M751.778 392.135C995.867 403.696 1329.83 338.343 1686.43 18.0024C1686.43 18.0024 1965.79 165.307 1748.64 837.653C921.5 792 298.905 1961.06 -15.5083 1319.78C-141.334 1063.15 -53.4702 588.879 -53.4702 588.879C199.15 452.456 507.689 380.575 751.778 392.135Z" fill="#D13693"/><path opacity="0.5" d="M920.079 854.125C675.99 865.685 342.025 800.332 -14.5724 479.992C-14.5724 479.992 -293.932 627.297 -76.7877 1299.64C750.357 1253.99 1372.95 2423.05 1687.37 1781.77C1813.19 1525.14 1725.33 1050.87 1725.33 1050.87C1472.71 914.446 1164.17 842.565 920.079 854.125Z" fill="#EBF3FA"/></svg>
